<svg width="24" height="24" viewBox="0 0 24 24" fill="none" xmlns="http://www.w3.org/2000/svg">
<path fill-rule="evenodd" clip-rule="evenodd" d="M5.00121 4.99925C6.79177 3.20869 9.268 2.09961 12.0016 2.09961C14.7351 2.09961 17.2114 3.20869 19.0019 4.99925C20.7925 6.78981 21.9016 9.26605 21.9016 11.9996C21.9016 14.7332 20.7925 17.2094 19.0019 19C17.2114 20.7905 14.7351 21.8996 12.0016 21.8996C9.268 21.8996 6.79177 20.7905 5.00121 19C3.21064 17.2094 2.10156 14.7332 2.10156 11.9996C2.10156 9.26605 3.21064 6.78981 5.00121 4.99925ZM12.9013 19.9996C12.9013 17.8661 12.1506 15.9079 10.8989 14.3748L12.5013 12.7724L17.591 17.8621C16.3406 19.0547 14.7111 19.8505 12.9012 20.0503L12.9013 19.9996ZM11.1013 19.9996C11.1013 18.3634 10.5479 16.8565 9.61792 15.6558L6.94547 18.3283C8.11106 19.2609 9.53889 19.8776 11.1012 20.0502L11.1013 19.9996ZM4.00133 12.8996C5.63753 12.8996 7.14447 13.4531 8.34513 14.383L5.67271 17.0554C4.74015 15.8898 4.12355 14.462 3.95097 12.8998L4.00133 12.8996ZM12.5013 10.2268L14.1037 8.6244C13.0305 7.30992 12.3256 5.68294 12.1464 3.90088C12.0982 3.90003 12.0499 3.89961 12.0016 3.89961C10.3455 3.89961 8.80627 4.39596 7.52339 5.24888L12.5013 10.2268ZM17.0574 5.67075L15.3847 7.34341C14.6766 6.42919 14.1868 5.33739 13.9934 4.14617C15.1293 4.43324 16.1694 4.96031 17.0574 5.67075ZM19.855 10.0075C18.6637 9.81416 17.5718 9.32433 16.6575 8.61621L18.3302 6.94352C19.0407 7.8315 19.5678 8.87167 19.855 10.0075ZM13.7741 11.4996L15.3765 9.89719C16.6911 10.9704 18.3181 11.6754 20.1003 11.8546C20.1011 11.9028 20.1016 11.9512 20.1016 11.9996C20.1016 13.6557 19.6052 15.1949 18.7523 16.4778L13.7741 11.4996ZM9.62612 13.102L11.2285 11.4996L6.1391 6.41017C4.94655 7.66052 4.15079 9.28994 3.95093 11.0997L4.00133 11.0996C6.13485 11.0996 8.09302 11.8503 9.62612 13.102Z" fill="#FFBA00"/>
</svg>
