<svg width="24" height="24" viewBox="0 0 24 24" fill="none" xmlns="http://www.w3.org/2000/svg">
<path fill-rule="evenodd" clip-rule="evenodd" d="M11.7297 4.83583C11.9127 4.78797 12.1048 4.78806 12.2877 4.83609C12.4536 4.87968 12.6337 4.99425 13.3838 5.55445L19.5568 10.1648C19.955 10.4622 20.519 10.3805 20.8164 9.98224C21.1138 9.58399 21.0321 9.02004 20.6339 8.7226L14.4609 4.11228L14.3461 4.0264C13.7752 3.59887 13.2958 3.23984 12.745 3.09515C12.2629 2.96851 11.7563 2.96828 11.274 3.09447C10.7231 3.23865 10.2433 3.59724 9.67203 4.02424L9.55717 4.11001L3.36993 8.7221C2.97141 9.01917 2.88916 9.58305 3.18623 9.98157C3.48329 10.3801 4.04718 10.4623 4.44569 10.1653L10.6329 5.55318C11.3835 4.99367 11.5637 4.87927 11.7297 4.83583ZM12.9016 10.8906C12.9016 10.3935 12.4986 9.99059 12.0016 9.99059C11.5045 9.99059 11.1016 10.3935 11.1016 10.8906V19.1004H8.90156V10.8929C8.90156 10.3959 8.49862 9.99291 8.00156 9.99291C7.50451 9.99291 7.10156 10.3959 7.10156 10.8929V19.1004H3.90391C3.40685 19.1004 3.00391 19.5033 3.00391 20.0004C3.00391 20.4974 3.40685 20.9004 3.90391 20.9004H20.0992C20.5963 20.9004 20.9992 20.4974 20.9992 20.0004C20.9992 19.5033 20.5963 19.1004 20.0992 19.1004H16.9016V10.8929C16.9016 10.3959 16.4986 9.99291 16.0016 9.99291C15.5045 9.99291 15.1016 10.3959 15.1016 10.8929V19.1004H12.9016V10.8906Z" fill="#FFBA00"/>
</svg>
