<svg width="24" height="24" viewBox="0 0 24 24" fill="none" xmlns="http://www.w3.org/2000/svg">
<path fill-rule="evenodd" clip-rule="evenodd" d="M12.9016 1.99961C12.9016 1.50255 12.4986 1.09961 12.0016 1.09961C11.5045 1.09961 11.1016 1.50255 11.1016 1.99961V2.17427C8.80679 2.55926 7.00278 4.39157 6.66028 6.70047L6.59093 6.68934C6.4523 6.66686 6.34662 6.6483 6.27681 6.63561C6.24191 6.62927 6.21599 6.62439 6.19941 6.62122L6.18159 6.61778L6.17806 6.61709C5.69081 6.51988 5.21649 6.83585 5.11903 7.3231C5.02155 7.81051 5.33765 8.28465 5.82505 8.38213L5.82644 8.38241L5.82874 8.38287L5.83608 8.38431L5.86157 8.38923C5.88332 8.39339 5.91452 8.39925 5.95482 8.40658C6.0354 8.42123 6.15238 8.44174 6.3028 8.46613C6.56186 8.50814 6.92037 8.56171 7.36328 8.61676C7.35552 8.72669 7.35156 8.83768 7.35156 8.9496C7.35156 11.5185 9.43263 13.5996 12.0016 13.5996C14.5705 13.5996 16.6516 11.5185 16.6516 8.9496C16.6516 8.83768 16.6476 8.72669 16.6398 8.61676C17.0827 8.56171 17.4413 8.50814 17.7003 8.46613C17.8507 8.44174 17.9677 8.42123 18.0483 8.40658C18.0886 8.39925 18.1198 8.39339 18.1415 8.38923L18.167 8.38431L18.1744 8.38287L18.1767 8.38241L18.1778 8.38218C18.6652 8.2847 18.9816 7.81051 18.8841 7.3231C18.7866 6.83577 18.3126 6.51969 17.8253 6.61705L17.8215 6.61778L17.8037 6.62122C17.7871 6.62439 17.7612 6.62927 17.7263 6.63561C17.6565 6.6483 17.5508 6.66686 17.4122 6.68934L17.3428 6.70047C17.0003 4.39157 15.1963 2.55926 12.9016 2.17427V1.99961ZM11.1017 4.013C11.1088 4.50388 11.509 4.89961 12.0016 4.89961C12.4941 4.89961 12.8943 4.50388 12.9015 4.013C14.2735 4.36611 15.3291 5.50778 15.5561 6.92611C14.5938 7.02049 13.3767 7.09961 12.0016 7.09961C10.6264 7.09961 9.40927 7.02049 8.44699 6.92611C8.67405 5.50778 9.72957 4.36611 11.1017 4.013ZM9.15575 8.79367C9.15297 8.84529 9.15156 8.89728 9.15156 8.9496C9.15156 10.5244 10.4267 11.7996 12.0016 11.7996C13.5764 11.7996 14.8516 10.5244 14.8516 8.9496C14.8516 8.89728 14.8502 8.84529 14.8474 8.79367C14.0119 8.85576 13.0506 8.89961 12.0016 8.89961C10.9525 8.89961 9.9912 8.85576 9.15575 8.79367ZM5.92925 20.0804C5.88881 20.0455 5.89106 19.9611 5.89629 19.7644C5.89863 19.6766 5.90156 19.5664 5.90156 19.4282C5.90156 17.5356 8.67976 16.3996 12.0016 16.3996C15.3234 16.3996 18.1016 17.5356 18.1016 19.4282C18.1016 19.5663 18.1045 19.6765 18.1068 19.7643C18.1121 19.9611 18.1143 20.0455 18.0739 20.0804C18.0435 20.1066 17.9892 20.1049 17.894 20.102C17.8576 20.1009 17.8154 20.0996 17.7663 20.0996H6.23686C6.18773 20.0996 6.14547 20.1009 6.10916 20.102C6.01398 20.1049 5.9596 20.1066 5.92925 20.0804ZM12.0016 14.5996C7.77435 14.5996 4.10156 16.1014 4.10156 19.4282C4.10156 21.1638 4.7871 21.8996 6.23686 21.8996H17.7663C19.216 21.8996 19.9016 21.1638 19.9016 19.4282C19.9016 16.1014 16.2288 14.5996 12.0016 14.5996Z" fill="#FFBA00"/>
</svg>
