<svg width="24" height="24" viewBox="0 0 24 24" fill="none" xmlns="http://www.w3.org/2000/svg">
<path fill-rule="evenodd" clip-rule="evenodd" d="M3.96221 8.89653L10.4171 5.22279C11.3984 4.66428 12.6015 4.66428 13.5828 5.22279L20.0377 8.89653C20.0704 8.91516 20.0795 8.92982 20.0838 8.93767C20.091 8.95047 20.0983 8.97224 20.0983 9.00082C20.0983 9.0294 20.091 9.05117 20.0838 9.06397C20.0795 9.07182 20.0704 9.08648 20.0377 9.10511L13.5828 12.7788C12.6015 13.3374 11.3984 13.3374 10.4171 12.7788L3.96221 9.10511C3.92946 9.08648 3.92043 9.07182 3.91605 9.06397C3.90891 9.05117 3.90156 9.0294 3.90156 9.00082C3.90156 8.97224 3.90891 8.95047 3.91605 8.93767C3.92043 8.92982 3.92946 8.91516 3.96221 8.89653ZM3.07186 10.6695C1.77813 9.93318 1.77813 8.06846 3.07186 7.33215L9.52675 3.65841C11.0601 2.78574 12.9398 2.78574 14.4731 3.65841L20.928 7.33215C21.5742 7.69993 21.8977 8.34924 21.8983 8.99883L21.9 9.00088V13.1009C21.9 13.5979 21.497 14.0009 21 14.0009C20.5029 14.0009 20.1 13.5979 20.1 13.1009V11.1408L14.4731 14.3432C12.9398 15.2159 11.0601 15.2159 9.52675 14.3432L3.07186 10.6695Z" fill="#F5C33C"/>
<path fill-rule="evenodd" clip-rule="evenodd" d="M17.2 11.1009V13.1093C17.2 14.5242 17.1993 15.5313 17.1349 16.3199C17.0713 17.0981 16.9502 17.5838 16.7532 17.9706C16.3601 18.7421 15.7329 19.3693 14.9614 19.7624C14.5746 19.9594 14.0888 20.0805 13.3107 20.1441C12.9314 20.1751 12.5015 20.1914 12 20.1999V22.0001C12.5434 21.9911 13.0261 21.9734 13.4573 21.9381C14.3467 21.8655 15.0958 21.7141 15.7786 21.3662C16.8887 20.8005 17.7913 19.8979 18.357 18.7878C18.7049 18.105 18.8563 17.3559 18.9289 16.4665C19 15.596 19 14.5155 19 13.149V11.1009H17.2Z" fill="#F5C33C"/>
<path fill-rule="evenodd" clip-rule="evenodd" d="M6.90008 11.1009V13.1109C6.90008 14.5259 6.90078 15.533 6.96522 16.3216C7.02879 17.0997 7.14989 17.5855 7.34696 17.9722C7.74004 18.7437 8.36726 19.3709 9.13872 19.764C9.52548 19.9611 10.0113 20.0822 10.7894 20.1457C11.1432 20.1746 11.541 20.1909 12 20.1999V22.0001C11.4971 21.9906 11.0473 21.9728 10.6428 21.9398C9.75339 21.8671 9.00434 21.7157 8.32154 21.3678C7.21138 20.8022 6.3088 19.8996 5.74314 18.7894C5.39524 18.1066 5.24386 17.3576 5.17119 16.4682C5.10007 15.5977 5.10008 14.5171 5.10008 13.1506V11.1009H6.90008Z" fill="#F5C33C"/>
</svg>
