<svg width="24" height="24" viewBox="0 0 24 24" fill="none" xmlns="http://www.w3.org/2000/svg">
<path fill-rule="evenodd" clip-rule="evenodd" d="M3.12687 10.7813C3.24743 10.2991 3.73607 10.0059 4.21828 10.1265L4 10.9996C4.21828 10.1265 4.21843 10.1265 4.21828 10.1265L4.22165 10.1273L4.24233 10.1323C4.26185 10.1369 4.29279 10.1441 4.3349 10.1535C4.41912 10.1723 4.54803 10.2 4.71968 10.2335C5.063 10.3007 5.57716 10.3916 6.24659 10.4829C7.58562 10.6655 9.54481 10.8496 12 10.8496C14.4552 10.8496 16.4144 10.6655 17.7534 10.4829C18.4228 10.3916 18.937 10.3007 19.2803 10.2335C19.452 10.2 19.5809 10.1723 19.6651 10.1535C19.7072 10.1441 19.7381 10.1369 19.7577 10.1323L19.7784 10.1273L19.7817 10.1265C19.7816 10.1265 19.7819 10.1264 19.7817 10.1265C20.2637 10.0064 20.7526 10.2994 20.8731 10.7813C20.9937 11.2635 20.7005 11.7522 20.2183 11.8727L20 10.9996C20.2183 11.8727 20.2185 11.8727 20.2183 11.8727L20.2134 11.8739L20.2041 11.8762L20.1725 11.8838C20.1456 11.8902 20.1072 11.8991 20.0576 11.9102C19.9582 11.9324 19.8137 11.9633 19.6259 12.0001C19.2505 12.0735 18.7022 12.1701 17.9966 12.2664C16.5856 12.4588 14.5448 12.6496 12 12.6496C9.45516 12.6496 7.41436 12.4588 6.00339 12.2664C5.29783 12.1701 4.74949 12.0735 4.37406 12.0001C4.18634 11.9633 4.04181 11.9324 3.94244 11.9102C3.89276 11.8991 3.85436 11.8902 3.82749 11.8838L3.79587 11.8762L3.7866 11.8739L3.78361 11.8732L3.78252 11.8729C3.78233 11.8729 3.78172 11.8727 4 10.9996L3.78252 11.8729C3.30031 11.7524 3.00632 11.2635 3.12687 10.7813ZM4.21828 10.1265C4.218 10.1264 4.2182 10.1265 4.21828 10.1265V10.1265Z" fill="#FFBA00"/>
<path d="M21 16.4996C21 17.328 20.3284 17.9996 19.5 17.9996H19V19.1996C19 19.4796 19 19.6197 19.0545 19.7266C19.1024 19.8207 19.1789 19.8972 19.273 19.9451C19.38 19.9996 19.52 19.9996 19.8 19.9996H20.2C20.48 19.9996 20.62 19.9996 20.727 19.9451C20.8211 19.8972 20.8976 19.8207 20.9455 19.7266C21 19.6197 21 19.4796 21 19.1996V16.4996Z" fill="#FFBA00"/>
<path fill-rule="evenodd" clip-rule="evenodd" d="M20.1 19.0996H19.9V18.8664C19.9677 18.8551 20.0344 18.8409 20.1 18.824V19.0996ZM21.9 16.4996V19.1996C21.9 19.2069 21.9 19.2143 21.9 19.2217C21.9 19.342 21.9001 19.4803 21.8902 19.6013C21.8788 19.7403 21.8501 19.9337 21.7474 20.1352C21.6132 20.3986 21.399 20.6128 21.1356 20.747C20.9341 20.8497 20.7407 20.8785 20.6017 20.8898C20.4806 20.8997 20.3423 20.8997 20.2221 20.8996C20.2147 20.8996 20.2073 20.8996 20.2 20.8996H19.8C19.7927 20.8996 19.7853 20.8996 19.7779 20.8996C19.6577 20.8997 19.5194 20.8997 19.3983 20.8898C19.2593 20.8785 19.0659 20.8497 18.8644 20.747C18.601 20.6128 18.3868 20.3986 18.2526 20.1352C18.1499 19.9337 18.1212 19.7403 18.1098 19.6013C18.0999 19.4803 18.1 19.3419 18.1 19.2217C18.1 19.2143 18.1 19.2069 18.1 19.1996V17.0996H19.5C19.8314 17.0996 20.1 16.831 20.1 16.4996H21.9Z" fill="#FFBA00"/>
<path d="M3 16.4996C3 17.328 3.67157 17.9996 4.5 17.9996H5V19.1996C5 19.4796 5 19.6197 4.9455 19.7266C4.89757 19.8207 4.82108 19.8972 4.727 19.9451C4.62004 19.9996 4.48003 19.9996 4.2 19.9996H3.8C3.51997 19.9996 3.37996 19.9996 3.273 19.9451C3.17892 19.8972 3.10243 19.8207 3.0545 19.7266C3 19.6197 3 19.4796 3 19.1996V16.4996Z" fill="#FFBA00"/>
<path fill-rule="evenodd" clip-rule="evenodd" d="M3.9 19.0996H4.1V18.8664C4.03233 18.8551 3.96562 18.8409 3.9 18.824V19.0996ZM2.1 16.4996V19.1996C2.1 19.2069 2.1 19.2143 2.1 19.2217C2.09996 19.342 2.09991 19.4803 2.1098 19.6013C2.12116 19.7403 2.14992 19.9337 2.25259 20.1352C2.38681 20.3986 2.60099 20.6128 2.86441 20.747C3.06591 20.8497 3.25928 20.8785 3.39831 20.8898C3.51935 20.8997 3.65766 20.8997 3.7779 20.8996C3.78534 20.8996 3.79271 20.8996 3.8 20.8996H4.2C4.20729 20.8996 4.21466 20.8996 4.2221 20.8996C4.34234 20.8997 4.48065 20.8997 4.60169 20.8898C4.74072 20.8785 4.93409 20.8497 5.13559 20.747C5.39901 20.6128 5.61319 20.3986 5.74741 20.1352C5.85008 19.9337 5.87884 19.7403 5.8902 19.6013C5.90009 19.4803 5.90004 19.3419 5.9 19.2217C5.9 19.2143 5.9 19.2069 5.9 19.1996V17.0996H4.5C4.16863 17.0996 3.9 16.831 3.9 16.4996H2.1Z" fill="#FFBA00"/>
<path fill-rule="evenodd" clip-rule="evenodd" d="M9.66232 4.09961H14.3377C15.2008 4.09959 15.9166 4.09958 16.5047 4.16039C17.124 4.22442 17.6776 4.36155 18.1962 4.68207C18.7149 5.0026 19.0851 5.43642 19.4193 5.96171C19.7368 6.4606 20.0569 7.10083 20.4428 7.8728L21.9 10.7872V18.8996H2.1V10.7872L3.55718 7.8728C3.94314 7.10082 4.26324 6.46059 4.58067 5.96171C4.91491 5.43642 5.28513 5.0026 5.80375 4.68207C6.32237 4.36155 6.87596 4.22442 7.49527 4.16039C8.08344 4.09958 8.79923 4.09959 9.66232 4.09961ZM7.68039 5.95084C7.21635 5.99882 6.9564 6.08572 6.75007 6.21324C6.54373 6.34077 6.34976 6.53441 6.09932 6.928C5.83768 7.33919 5.55833 7.89542 5.14663 8.71882L3.9 11.2121V17.0996H20.1V11.2121L18.8534 8.71882C18.4417 7.89542 18.1623 7.33919 17.9007 6.928C17.6502 6.53441 17.4563 6.34077 17.2499 6.21324C17.0436 6.08572 16.7836 5.99882 16.3196 5.95084C15.8348 5.90072 15.2124 5.89961 14.2918 5.89961H9.70821C8.78762 5.89961 8.16518 5.90072 7.68039 5.95084Z" fill="#FFBA00"/>
<path fill-rule="evenodd" clip-rule="evenodd" d="M1 10.6141V10.3848C1 9.89591 1.3963 9.49961 1.88516 9.49961H4V10.9996L3.63731 11.725C3.54886 11.9019 3.39856 12.0402 3.21493 12.1136C2.15403 12.538 1 11.7567 1 10.6141ZM23 10.6141V10.3848C23 9.89591 22.6037 9.49961 22.1148 9.49961H20V10.9996L20.3627 11.725C20.4511 11.9019 20.6014 12.0402 20.7851 12.1136C21.846 12.538 23 11.7567 23 10.6141Z" fill="#FFBA00"/>
<path fill-rule="evenodd" clip-rule="evenodd" d="M5.10695 14.388C5.1686 13.8948 5.61841 13.5449 6.11163 13.6066L8.11163 13.8566C8.60485 13.9182 8.9547 14.368 8.89305 14.8612C8.8314 15.3545 8.38159 15.7043 7.88837 15.6427L5.88837 15.3927C5.39515 15.331 5.0453 14.8812 5.10695 14.388Z" fill="#FFBA00"/>
<path fill-rule="evenodd" clip-rule="evenodd" d="M18.8931 14.388C18.8314 13.8948 18.3816 13.5449 17.8884 13.6066L15.8884 13.8566C15.3952 13.9182 15.0453 14.368 15.107 14.8612C15.1686 15.3545 15.6184 15.7043 16.1116 15.6427L18.1116 15.3927C18.6048 15.331 18.9547 14.8812 18.8931 14.388Z" fill="#FFBA00"/>
</svg>
