<svg width="24" height="24" viewBox="0 0 24 24" fill="none" xmlns="http://www.w3.org/2000/svg">
<path fill-rule="evenodd" clip-rule="evenodd" d="M5.6278 2.73235C5.97927 2.38088 6.54912 2.38088 6.90059 2.73235L13.2181 9.04983C13.2345 9.06625 13.2501 9.08315 13.265 9.10047H19.6685C19.6903 9.10047 19.7125 9.10041 19.735 9.10035C19.9727 9.09973 20.2465 9.09902 20.4936 9.16521C21.1492 9.3409 21.6614 9.85304 21.8371 10.5087C21.9033 10.7558 21.9025 11.0296 21.9019 11.2672C21.9019 11.2898 21.9018 11.312 21.9018 11.3338C21.9018 11.3859 21.9018 11.4373 21.9018 11.488C21.9021 12.8901 21.9022 13.7756 21.7008 14.5275C21.189 16.4375 19.7578 17.9552 17.9018 18.5862V19.0205C17.9018 19.0494 17.9018 19.0782 17.9019 19.1068C17.9024 19.465 17.9028 19.7997 17.8264 20.0973C17.6087 20.9452 16.9466 21.6074 16.0987 21.8251C15.801 21.9015 15.4663 21.901 15.1082 21.9005C15.0795 21.9005 15.0507 21.9005 15.0218 21.9005H8.9818C8.95287 21.9005 8.92409 21.9005 8.89545 21.9005C8.53727 21.901 8.20258 21.9015 7.90495 21.8251C7.05703 21.6074 6.39491 20.9452 6.1772 20.0973C6.10078 19.7997 6.10124 19.465 6.10172 19.1068C6.10176 19.0782 6.1018 19.0494 6.1018 19.0205V18.5862C4.24577 17.9552 2.81461 16.4375 2.30284 14.5275C2.10136 13.7756 2.10153 12.8901 2.10178 11.4881C2.10179 11.4373 2.1018 11.3859 2.1018 11.3338C2.1018 11.312 2.10174 11.2898 2.10168 11.2672C2.10106 11.0296 2.10035 10.7558 2.16654 10.5087C2.34223 9.85304 2.85437 9.3409 3.51005 9.16521C3.75708 9.09902 4.03091 9.09973 4.26855 9.10035C4.29109 9.10041 4.3133 9.10047 4.33513 9.10047H6.48048L3.50648 6.12647C3.155 5.77499 3.155 5.20515 3.50648 4.85367C3.85795 4.5022 4.4278 4.5022 4.77927 4.85367L9.02606 9.10047H10.7231L5.6278 4.00515C5.27632 3.65367 5.27632 3.08383 5.6278 2.73235ZM9.66847 17.1005H14.3351C15.943 17.1005 16.5704 17.0927 17.063 16.9608C18.4778 16.5817 19.583 15.4765 19.9621 14.0616C20.0941 13.5691 20.1018 12.9417 20.1018 11.3338C20.1018 11.1707 20.1016 11.0783 20.0985 11.0102C20.0974 10.9876 20.0963 10.9733 20.0955 10.9655C20.0854 10.9384 20.0639 10.9169 20.0368 10.9068C20.0289 10.906 20.0147 10.9048 19.9921 10.9038C19.924 10.9007 19.8316 10.9005 19.6685 10.9005H4.33513C4.17198 10.9005 4.07964 10.9007 4.0115 10.9038C3.98893 10.9048 3.97467 10.906 3.96683 10.9068C3.93969 10.9169 3.91824 10.9384 3.90811 10.9655C3.90733 10.9733 3.90616 10.9876 3.90513 11.0102C3.90202 11.0783 3.9018 11.1707 3.9018 11.3338C3.9018 12.9417 3.90953 13.5691 4.04151 14.0616C4.42062 15.4765 5.52577 16.5817 6.94064 16.9608C7.43318 17.0927 8.06057 17.1005 9.66847 17.1005ZM7.9018 18.9005V19.0205C7.9018 19.5224 7.90893 19.604 7.92065 19.6497C7.97508 19.8617 8.14061 20.0272 8.35259 20.0816C8.39824 20.0933 8.47992 20.1005 8.9818 20.1005H15.0218C15.5237 20.1005 15.6054 20.0933 15.651 20.0816C15.863 20.0272 16.0285 19.8617 16.083 19.6497C16.0947 19.604 16.1018 19.5224 16.1018 19.0205V18.9005H14.7807C14.6861 18.9005 14.5891 18.9005 14.4894 18.9005C14.4387 18.9005 14.3873 18.9005 14.3351 18.9005H9.66847C9.61635 18.9005 9.56493 18.9005 9.51419 18.9005C9.41454 18.9005 9.31751 18.9005 9.22295 18.9005H7.9018Z" fill="#FFBA00"/>
</svg>
