<svg width="24" height="24" viewBox="0 0 24 24" fill="none" xmlns="http://www.w3.org/2000/svg">
<path fill-rule="evenodd" clip-rule="evenodd" d="M11.1662 3.09961H11.2016H12.8016H12.837H12.837C13.3669 3.0996 13.818 3.09958 14.1885 3.12985C14.5776 3.16164 14.9562 3.23128 15.3181 3.41569C15.8638 3.69373 16.3075 4.13737 16.5855 4.68304C16.7699 5.04497 16.8395 5.42357 16.8713 5.81273C16.9004 6.16801 16.9015 6.59758 16.9016 7.09961H17.8016L17.837 7.09961C18.3668 7.0996 18.818 7.09958 19.1884 7.12985C19.5776 7.16164 19.9562 7.23128 20.3181 7.41569C20.8638 7.69372 21.3075 8.13737 21.5855 8.68304C21.7699 9.04497 21.8395 9.42356 21.8713 9.81273C21.9016 10.1831 21.9016 10.6343 21.9016 11.1642V11.1642V11.1642V11.1996V12.5996V12.6329C21.9016 13.0245 21.9016 13.3709 21.8781 13.6581C21.8532 13.9639 21.7971 14.2807 21.64 14.5892C21.4099 15.0408 21.0427 15.4079 20.5911 15.638C20.3633 15.7541 20.1308 15.815 19.9016 15.849V16.3996V16.4358C19.9016 17.035 19.9016 17.5386 19.8679 17.9507C19.8327 18.3815 19.7563 18.791 19.5582 19.1797C19.2562 19.7724 18.7743 20.2543 18.1816 20.5563C17.793 20.7543 17.3835 20.8308 16.9526 20.866C16.5406 20.8996 16.037 20.8996 15.4378 20.8996H15.4377L15.4016 20.8996H8.60157L8.56542 20.8996H8.56532C7.96608 20.8996 7.46254 20.8996 7.05048 20.866C6.61963 20.8308 6.21017 20.7543 5.8215 20.5563C5.22878 20.2543 4.7469 19.7724 4.4449 19.1797C4.24686 18.791 4.17041 18.3815 4.13521 17.9507C4.10154 17.5386 4.10155 17.035 4.10156 16.4358L4.10157 16.3996V15.849C3.87236 15.815 3.63988 15.7541 3.41199 15.638C2.9604 15.4079 2.59325 15.0408 2.36315 14.5892C2.20598 14.2807 2.14997 13.9639 2.12499 13.6581C2.10153 13.371 2.10155 13.0245 2.10156 12.633V12.6329L2.10157 12.5996V11.1996L2.10156 11.1642V11.1641C2.10155 10.6343 2.10154 10.1831 2.1318 9.81273C2.1636 9.42357 2.23323 9.04497 2.41765 8.68304C2.69568 8.13737 3.13932 7.69372 3.68499 7.41569C4.04693 7.23128 4.42552 7.16164 4.81468 7.12985C5.18511 7.09958 5.63629 7.0996 6.16616 7.09961L6.20157 7.09961H7.10157C7.1016 6.59758 7.10277 6.16801 7.1318 5.81273C7.1636 5.42357 7.23323 5.04497 7.41765 4.68304C7.69568 4.13737 8.13932 3.69373 8.68499 3.41569C9.04693 3.23128 9.42552 3.16164 9.81468 3.12985C10.1851 3.09958 10.6363 3.0996 11.1661 3.09961H11.1662ZM5.40157 14.0996H18.6016C19.0365 14.0996 19.3085 14.0989 19.5135 14.0822C19.7079 14.0663 19.7615 14.0405 19.774 14.0342C19.8869 13.9767 19.9786 13.8849 20.0362 13.772C20.0425 13.7596 20.0682 13.706 20.0841 13.5115C20.1009 13.3065 20.1016 13.0345 20.1016 12.5996V11.1996C20.1016 10.6247 20.1009 10.2477 20.0773 9.9593C20.0546 9.68146 20.0152 9.56611 19.9817 9.50022C19.8762 9.29324 19.7079 9.12496 19.501 9.0195C19.4351 8.98593 19.3197 8.94657 19.0419 8.92387C18.7535 8.90031 18.3765 8.89961 17.8016 8.89961H16.9016V8.89962H16.0016H8.00157H7.10157V8.89961H6.20157C5.62666 8.89961 5.24961 8.90031 4.96126 8.92387C4.68341 8.94657 4.56807 8.98593 4.50218 9.0195C4.2952 9.12496 4.12692 9.29324 4.02146 9.50022C3.98789 9.56611 3.94853 9.68146 3.92582 9.9593C3.90227 10.2477 3.90157 10.6247 3.90157 11.1996V12.5996C3.90157 13.0345 3.90227 13.3065 3.91901 13.5115C3.9349 13.706 3.96064 13.7596 3.96696 13.772C4.02449 13.8849 4.11627 13.9767 4.22917 14.0342C4.24158 14.0405 4.29519 14.0663 4.48966 14.0822C4.69464 14.0989 4.96668 14.0996 5.40157 14.0996ZM5.90157 15.8996V16.3996C5.90157 17.0445 5.90227 17.4741 5.92923 17.8041C5.95534 18.1237 6.00151 18.2699 6.04871 18.3625C6.17814 18.6165 6.38466 18.823 6.63868 18.9525C6.73131 18.9997 6.87752 19.0458 7.19706 19.0719C7.5271 19.0989 7.95666 19.0996 8.60157 19.0996H15.4016C16.0465 19.0996 16.476 19.0989 16.8061 19.0719C17.1256 19.0458 17.2718 18.9997 17.3645 18.9525C17.6185 18.823 17.825 18.6165 17.9544 18.3625C18.0016 18.2699 18.0478 18.1237 18.0739 17.8041C18.1009 17.4741 18.1016 17.0445 18.1016 16.3996V15.8996H5.90157ZM15.0773 5.9593C15.0995 6.23059 15.1014 6.5804 15.1016 7.09961H8.90158C8.90173 6.5804 8.90366 6.23059 8.92582 5.9593C8.94853 5.68146 8.98789 5.56611 9.02146 5.50022C9.12692 5.29324 9.2952 5.12496 9.50218 5.0195C9.56807 4.98593 9.68341 4.94657 9.96126 4.92387C10.2496 4.90031 10.6267 4.89961 11.2016 4.89961H12.8016C13.3765 4.89961 13.7535 4.90031 14.0419 4.92387C14.3197 4.94657 14.4351 4.98593 14.501 5.0195C14.7079 5.12496 14.8762 5.29324 14.9817 5.50022C15.0152 5.56611 15.0546 5.68146 15.0773 5.9593Z" fill="#FFBA00"/>
</svg>
