<svg width="20" height="16" viewBox="0 0 20 16" fill="none" xmlns="http://www.w3.org/2000/svg">
<path fill-rule="evenodd" clip-rule="evenodd" d="M5.80017 0.0996094H5.76013C4.96013 0.0996094 4.29013 0.0996089 3.76013 0.143509C3.20013 0.188909 2.7001 0.285808 2.2301 0.524708C1.5001 0.898608 0.900151 1.49521 0.530151 2.22901C0.290151 2.69791 0.190146 3.20001 0.150146 3.75591C0.100146 4.29301 0.100098 4.95381 0.100098 5.76191V5.79961V10.1996V10.2373C0.100098 11.0454 0.100146 11.7062 0.150146 12.2433C0.190146 12.7992 0.290151 13.3013 0.530151 13.7702C0.900151 14.504 1.5001 15.1006 2.2301 15.4745C2.7001 15.7134 3.20013 15.8103 3.76013 15.8557C4.29013 15.8996 4.96013 15.8996 5.76013 15.8996H5.80017H14.2001H14.2401C15.0501 15.8996 15.7101 15.8996 16.2501 15.8557C16.8001 15.8103 17.3001 15.7134 17.7701 15.4745C18.5101 15.1006 19.1001 14.504 19.4801 13.7702C19.7201 13.3013 19.8101 12.7992 19.8601 12.2433C19.9001 11.7062 19.9001 11.0454 19.9001 10.2373V10.1996V5.79961V5.76191C19.9001 4.95391 19.9001 4.29301 19.8601 3.75591C19.8101 3.20001 19.7201 2.69791 19.4801 2.22901C19.1001 1.49521 18.5101 0.898608 17.7701 0.524708C17.3001 0.285808 16.8001 0.188909 16.2501 0.143509C15.7101 0.0996089 15.0501 0.0996094 14.2401 0.0996094H14.2001H5.80017ZM3.38013 2.01181C3.52013 1.98041 3.69015 1.95531 3.90015 1.93751C4.36015 1.90031 4.95017 1.89961 5.80017 1.89961H14.2001C15.0601 1.89961 15.6401 1.90031 16.1001 1.93751C16.3201 1.95531 16.4901 1.98041 16.6201 2.01181L12.6101 5.51971C12.0301 6.02531 11.6402 6.37061 11.3102 6.61701C10.9902 6.85661 10.7801 6.96021 10.6101 7.01231C10.2101 7.12941 9.79014 7.12941 9.39014 7.01231C9.22014 6.96021 9.01006 6.85661 8.69006 6.61701C8.36006 6.37061 7.97014 6.02531 7.39014 5.51971L3.38013 2.01181ZM2.05017 3.23961C2.00017 3.39531 1.96006 3.60181 1.94006 3.90251C1.90006 4.35761 1.90015 4.94471 1.90015 5.79961V10.1996C1.90015 11.0545 1.90006 11.6416 1.94006 12.0967C1.98006 12.5413 2.04013 12.7801 2.13013 12.953C2.33013 13.3481 2.65017 13.6694 3.05017 13.8707C3.22017 13.9588 3.46015 14.0254 3.90015 14.0617C4.36015 14.0989 4.95017 14.0996 5.80017 14.0996H14.2001C15.0601 14.0996 15.6401 14.0989 16.1001 14.0617C16.5401 14.0254 16.7801 13.9588 16.9501 13.8707C17.3501 13.6694 17.6701 13.3481 17.8701 12.953C17.9601 12.7801 18.0302 12.5413 18.0602 12.0967C18.1002 11.6416 18.1001 11.0545 18.1001 10.1996V5.79961C18.1001 4.94471 18.1002 4.35761 18.0602 3.90251C18.0402 3.60181 18.0001 3.39531 17.9501 3.23961L13.8002 6.87431L13.7701 6.89731C13.2301 7.37431 12.7801 7.76581 12.3901 8.05851C11.9801 8.36261 11.5801 8.60171 11.1201 8.73841C10.3901 8.95411 9.61013 8.95411 8.88013 8.73841C8.42013 8.60171 8.02012 8.36261 7.62012 8.05851C7.22012 7.76581 6.7801 7.37431 6.2301 6.89731L6.21008 6.87431L2.05017 3.23961Z" fill="#80A948"/>
</svg>
