<svg width="14" height="20" viewBox="0 0 14 20" fill="none" xmlns="http://www.w3.org/2000/svg">
<path fill-rule="evenodd" clip-rule="evenodd" d="M6.18207 1.89961H7.82208C8.91508 1.89961 9.62708 1.90101 10.1711 1.94541C10.6931 1.98811 10.8991 2.06131 11.0101 2.11761C11.3861 2.30931 11.692 2.61531 11.884 2.99161C11.94 3.10201 12.0131 3.30801 12.0561 3.83041C12.1001 4.37371 12.1021 5.08581 12.1021 6.17961V13.8196C12.1021 14.9134 12.1001 15.6255 12.0561 16.1689C12.0131 16.6912 11.94 16.8972 11.884 17.0076C11.692 17.3839 11.3861 17.6899 11.0101 17.8816C10.8991 17.9379 10.6931 18.0112 10.1711 18.0538C9.62708 18.0982 8.91508 18.0996 7.82208 18.0996H6.18207C5.08807 18.0996 4.37603 18.0982 3.83203 18.0538C3.31003 18.0112 3.10408 17.9379 2.99408 17.8816C2.61708 17.6899 2.31106 17.3839 2.12006 17.0076C2.06306 16.8972 1.99008 16.6912 1.94708 16.1689C1.90308 15.6255 1.90204 14.9134 1.90204 13.8196V6.17961C1.90204 5.08581 1.90308 4.37371 1.94708 3.83041C1.99008 3.30801 2.06306 3.10201 2.12006 2.99161C2.31106 2.61531 2.61708 2.30931 2.99408 2.11761C3.10408 2.06131 3.31003 1.98811 3.83203 1.94541C4.37603 1.90101 5.08807 1.89961 6.18207 1.89961ZM0.102051 6.17961C0.102051 4.05141 0.102052 2.98731 0.516052 2.17441C0.880052 1.45941 1.46109 0.878109 2.17609 0.513809C2.98909 0.0996092 4.05307 0.0996094 6.18207 0.0996094H7.82208C9.95008 0.0996094 11.0141 0.0996092 11.8271 0.513809C12.5421 0.878109 13.1231 1.45941 13.4871 2.17441C13.9021 2.98731 13.902 4.05141 13.902 6.17961V13.8196C13.902 15.9478 13.9021 17.0119 13.4871 17.8248C13.1231 18.5398 12.5421 19.1211 11.8271 19.4855C11.0141 19.8996 9.95008 19.8996 7.82208 19.8996H6.18207C4.05307 19.8996 2.98909 19.8996 2.17609 19.4855C1.46109 19.1211 0.880052 18.5398 0.516052 17.8248C0.102052 17.0119 0.102051 15.9478 0.102051 13.8196V6.17961ZM6.25208 14.1996C5.75408 14.1996 5.35205 14.6026 5.35205 15.0996C5.35205 15.5967 5.75408 15.9996 6.25208 15.9996H7.75208C8.24908 15.9996 8.65204 15.5967 8.65204 15.0996C8.65204 14.6026 8.24908 14.1996 7.75208 14.1996H6.25208Z" fill="#80A948"/>
</svg>
